<?xml version="1.0" encoding="utf-8"?>
<!-- Generator: Adobe Illustrator 27.8.1, SVG Export Plug-In . SVG Version: 6.00 Build 0)  -->
<svg version="1.1" id="Ebene_2" xmlns="http://www.w3.org/2000/svg" xmlns:xlink="http://www.w3.org/1999/xlink" x="0px" y="0px"
	 viewBox="0 0 300 105" style="enable-background:new 0 0 300 105;" xml:space="preserve">
<style type="text/css">
	.st0{fill:none;stroke:#FFFFFF;stroke-width:2.0476;stroke-miterlimit:10;}
	.st1{fill:#FFFFFF;}
</style>
<circle class="st0" cx="18" cy="15.25" r="10.75"/>
<circle class="st0" cx="18" cy="52.25" r="10.75"/>
<circle class="st0" cx="18" cy="89.25" r="10.75"/>
<circle class="st0" cx="55" cy="89.25" r="10.75"/>
<circle class="st0" cx="55" cy="15.25" r="10.75"/>
<g>
	<g>
		<path class="st1" d="M75.45,61.34c0,0.5-0.18,0.92-0.55,1.26c-0.37,0.34-0.79,0.51-1.28,0.51c-0.54,0-0.98-0.17-1.31-0.51
			c-0.33-0.34-0.49-0.76-0.49-1.26V44.58c0-0.5,0.17-0.92,0.52-1.26c0.35-0.34,0.79-0.51,1.33-0.51c0.46,0,0.88,0.17,1.23,0.51
			c0.36,0.34,0.54,0.76,0.54,1.26V61.34z"/>
		<path class="st1" d="M95.2,42.81c0.46,0,0.84,0.15,1.13,0.46c0.29,0.31,0.44,0.7,0.44,1.16v16.91c0,0.5-0.17,0.92-0.51,1.26
			S95.5,63.11,95,63.11c-0.25,0-0.51-0.04-0.77-0.13c-0.26-0.09-0.46-0.21-0.59-0.36l-11.4-14.47l0.75-0.46v13.8
			c0,0.46-0.15,0.85-0.45,1.16c-0.3,0.31-0.69,0.46-1.17,0.46c-0.46,0-0.84-0.15-1.13-0.46c-0.29-0.31-0.44-0.7-0.44-1.16V44.58
			c0-0.5,0.17-0.92,0.51-1.26c0.34-0.34,0.76-0.51,1.26-0.51c0.27,0,0.55,0.05,0.84,0.16c0.29,0.11,0.5,0.27,0.64,0.48L94.1,57.54
			l-0.49,0.35V44.43c0-0.46,0.15-0.85,0.44-1.16C94.33,42.97,94.72,42.81,95.2,42.81z"/>
		<path class="st1" d="M102.91,63.11c-0.54,0-0.98-0.17-1.31-0.51c-0.33-0.34-0.49-0.76-0.49-1.26V44.58c0-0.5,0.17-0.92,0.52-1.26
			c0.35-0.34,0.79-0.51,1.33-0.51c0.54,0,0.97,0.17,1.29,0.51c0.32,0.34,0.48,0.76,0.48,1.26v16.76c0,0.5-0.16,0.92-0.49,1.26
			C103.92,62.94,103.47,63.11,102.91,63.11z M115.44,42.67c0.46,0,0.85,0.19,1.15,0.57c0.3,0.38,0.45,0.76,0.45,1.15
			c0,0.41-0.17,0.78-0.52,1.13l-12.15,11.63l-0.15-4.15l9.8-9.66C114.46,42.89,114.94,42.67,115.44,42.67z M115.09,63.11
			c-0.54,0-0.98-0.22-1.3-0.67l-6.7-8.82l2.64-2.7l6.93,9.16c0.27,0.37,0.41,0.76,0.41,1.19c0,0.54-0.2,0.98-0.61,1.32
			C116.05,62.94,115.59,63.11,115.09,63.11z"/>
		<path class="st1" d="M131.3,59.72c0.5,0,0.92,0.16,1.26,0.48s0.51,0.73,0.51,1.23c0,0.48-0.17,0.88-0.51,1.2s-0.76,0.48-1.26,0.48
			h-9.43c-0.5,0-0.92-0.17-1.26-0.51c-0.34-0.34-0.51-0.76-0.51-1.26V44.58c0-0.5,0.17-0.92,0.52-1.26
			c0.35-0.34,0.79-0.51,1.33-0.51c0.46,0,0.88,0.17,1.23,0.51c0.36,0.34,0.54,0.76,0.54,1.26v15.63l-0.64-0.49H131.3z"/>
		<path class="st1" d="M150.82,42.78c0.5,0,0.91,0.17,1.22,0.51s0.46,0.76,0.46,1.26v10.5c0,1.6-0.34,3.03-1.03,4.26
			s-1.63,2.2-2.83,2.9c-1.2,0.7-2.59,1.04-4.18,1.04s-2.98-0.35-4.19-1.04c-1.21-0.7-2.16-1.66-2.84-2.9
			c-0.69-1.24-1.03-2.66-1.03-4.26v-10.5c0-0.5,0.17-0.92,0.52-1.26c0.35-0.34,0.79-0.51,1.33-0.51c0.44,0,0.85,0.17,1.2,0.51
			c0.36,0.34,0.54,0.76,0.54,1.26v10.5c0,0.97,0.21,1.8,0.62,2.51c0.42,0.71,0.97,1.25,1.65,1.64c0.69,0.39,1.42,0.58,2.19,0.58
			c0.83,0,1.6-0.19,2.32-0.58c0.71-0.39,1.29-0.93,1.74-1.64c0.44-0.71,0.67-1.54,0.67-2.51v-10.5c0-0.5,0.15-0.92,0.44-1.26
			S150.32,42.78,150.82,42.78z"/>
		<path class="st1" d="M163.38,63.4c-1.35,0-2.57-0.17-3.65-0.51c-1.08-0.34-2.12-0.93-3.1-1.78c-0.25-0.21-0.45-0.45-0.58-0.73
			c-0.14-0.27-0.2-0.54-0.2-0.81c0-0.44,0.16-0.84,0.48-1.17c0.32-0.34,0.72-0.51,1.2-0.51c0.37,0,0.7,0.12,0.99,0.35
			c0.73,0.6,1.46,1.05,2.19,1.36s1.62,0.46,2.68,0.46c0.71,0,1.37-0.11,1.97-0.33s1.08-0.52,1.45-0.9s0.55-0.81,0.55-1.29
			c0-0.58-0.17-1.07-0.52-1.48c-0.35-0.41-0.88-0.75-1.6-1.03c-0.71-0.28-1.62-0.5-2.73-0.65c-1.04-0.15-1.96-0.39-2.75-0.71
			c-0.79-0.32-1.46-0.73-1.99-1.22c-0.53-0.49-0.93-1.07-1.2-1.74s-0.41-1.42-0.41-2.25c0-1.26,0.32-2.33,0.97-3.22
			s1.52-1.57,2.62-2.03c1.1-0.46,2.32-0.7,3.65-0.7c1.26,0,2.42,0.19,3.5,0.57s1.95,0.86,2.62,1.44c0.56,0.44,0.84,0.96,0.84,1.54
			c0,0.43-0.17,0.81-0.49,1.16c-0.33,0.35-0.72,0.52-1.16,0.52c-0.29,0-0.55-0.09-0.78-0.26c-0.31-0.27-0.72-0.53-1.25-0.77
			c-0.52-0.24-1.07-0.44-1.65-0.61c-0.58-0.16-1.12-0.25-1.62-0.25c-0.83,0-1.53,0.11-2.1,0.32c-0.57,0.21-1,0.5-1.29,0.87
			s-0.43,0.79-0.43,1.28c0,0.58,0.17,1.06,0.51,1.44s0.83,0.68,1.46,0.9c0.64,0.22,1.4,0.42,2.29,0.59
			c1.16,0.21,2.18,0.46,3.06,0.75c0.88,0.29,1.61,0.66,2.19,1.12c0.58,0.45,1.01,1.03,1.3,1.71c0.29,0.69,0.44,1.52,0.44,2.51
			c0,1.26-0.35,2.34-1.04,3.25c-0.7,0.91-1.61,1.6-2.74,2.09S164.69,63.4,163.38,63.4z"/>
		<path class="st1" d="M177.79,61.34c0,0.5-0.18,0.92-0.55,1.26s-0.79,0.51-1.28,0.51c-0.54,0-0.98-0.17-1.3-0.51
			c-0.33-0.34-0.49-0.76-0.49-1.26V44.58c0-0.5,0.17-0.92,0.52-1.26c0.35-0.34,0.79-0.51,1.33-0.51c0.46,0,0.87,0.17,1.23,0.51
			c0.36,0.34,0.54,0.76,0.54,1.26V61.34z"/>
		<path class="st1" d="M196.96,42.75c0.48,0,0.9,0.16,1.26,0.48c0.36,0.32,0.54,0.72,0.54,1.2c0,0.25-0.06,0.51-0.17,0.78
			l-7.16,16.76c-0.17,0.39-0.42,0.67-0.74,0.86c-0.32,0.18-0.64,0.28-0.97,0.28c-0.31-0.02-0.61-0.12-0.9-0.3
			c-0.29-0.18-0.51-0.45-0.67-0.8l-7.16-16.82c-0.06-0.12-0.1-0.24-0.12-0.36c-0.02-0.13-0.03-0.25-0.03-0.36
			c0-0.56,0.2-0.99,0.61-1.29c0.41-0.3,0.79-0.45,1.16-0.45c0.73,0,1.27,0.38,1.6,1.13l6.35,14.94l-1.01,0.03l5.83-14.96
			C195.69,43.12,196.22,42.75,196.96,42.75z"/>
		<path class="st1" d="M209.25,47.36l-6.26,14.73c-0.14,0.37-0.34,0.65-0.62,0.86c-0.28,0.2-0.58,0.3-0.91,0.3
			c-0.52,0-0.91-0.15-1.16-0.44c-0.25-0.29-0.38-0.65-0.38-1.07c0-0.17,0.03-0.36,0.09-0.55l7.22-17.34
			c0.16-0.39,0.39-0.69,0.71-0.9s0.66-0.3,1.03-0.26c0.35,0,0.67,0.1,0.97,0.3c0.3,0.2,0.52,0.49,0.65,0.86l7.13,16.99
			c0.1,0.25,0.15,0.48,0.15,0.7c0,0.52-0.17,0.94-0.51,1.25c-0.34,0.31-0.71,0.46-1.12,0.46c-0.35,0-0.66-0.11-0.94-0.32
			c-0.28-0.21-0.5-0.5-0.65-0.87l-6.24-14.53L209.25,47.36z M203.89,58.56l1.6-3.33h7.83l0.55,3.33H203.89z"/>
		<path class="st1" d="M242.66,43.8c0.5,0.25,0.8,0.65,0.88,1.19c0.09,0.54-0.05,1.03-0.42,1.48c-0.25,0.35-0.58,0.54-0.97,0.58
			c-0.4,0.04-0.8-0.04-1.2-0.23c-0.46-0.21-0.95-0.38-1.46-0.49c-0.51-0.12-1.05-0.17-1.61-0.17c-1.04,0-1.98,0.16-2.8,0.49
			c-0.82,0.33-1.52,0.8-2.1,1.41s-1.02,1.33-1.32,2.16c-0.3,0.83-0.45,1.75-0.45,2.75c0,1.18,0.17,2.2,0.51,3.07
			c0.34,0.87,0.81,1.6,1.41,2.18s1.31,1.01,2.12,1.29c0.81,0.28,1.69,0.42,2.64,0.42c0.52,0,1.04-0.05,1.57-0.15
			c0.52-0.1,1.02-0.27,1.51-0.52c0.41-0.19,0.81-0.26,1.2-0.2c0.4,0.06,0.73,0.26,1,0.61c0.39,0.48,0.53,0.98,0.42,1.49
			c-0.11,0.51-0.4,0.88-0.88,1.12c-0.5,0.25-1.02,0.46-1.55,0.62c-0.53,0.16-1.07,0.29-1.61,0.38c-0.54,0.09-1.09,0.13-1.65,0.13
			c-1.39,0-2.71-0.22-3.96-0.67s-2.36-1.1-3.33-1.97c-0.98-0.87-1.75-1.96-2.31-3.26c-0.56-1.31-0.84-2.82-0.84-4.54
			c0-1.49,0.26-2.86,0.77-4.12c0.51-1.26,1.24-2.34,2.17-3.26s2.04-1.63,3.32-2.15c1.28-0.51,2.67-0.77,4.18-0.77
			c0.85,0,1.68,0.1,2.49,0.29C241.18,43.15,241.95,43.43,242.66,43.8z"/>
		<path class="st1" d="M254.09,47.36l-6.26,14.73c-0.14,0.37-0.34,0.65-0.62,0.86c-0.28,0.2-0.58,0.3-0.91,0.3
			c-0.52,0-0.91-0.15-1.16-0.44c-0.25-0.29-0.38-0.65-0.38-1.07c0-0.17,0.03-0.36,0.09-0.55l7.22-17.34
			c0.16-0.39,0.39-0.69,0.71-0.9s0.66-0.3,1.03-0.26c0.35,0,0.67,0.1,0.97,0.3c0.3,0.2,0.52,0.49,0.65,0.86l7.13,16.99
			c0.1,0.25,0.15,0.48,0.15,0.7c0,0.52-0.17,0.94-0.51,1.25c-0.34,0.31-0.71,0.46-1.12,0.46c-0.35,0-0.66-0.11-0.94-0.32
			c-0.28-0.21-0.5-0.5-0.65-0.87l-6.24-14.53L254.09,47.36z M248.72,58.56l1.6-3.33h7.83l0.55,3.33H248.72z"/>
		<path class="st1" d="M276.36,59.72c0.5,0,0.92,0.16,1.26,0.48c0.34,0.32,0.51,0.73,0.51,1.23c0,0.48-0.17,0.88-0.51,1.2
			c-0.34,0.32-0.76,0.48-1.26,0.48h-9.42c-0.5,0-0.92-0.17-1.26-0.51c-0.34-0.34-0.51-0.76-0.51-1.26V44.58
			c0-0.5,0.17-0.92,0.52-1.26c0.35-0.34,0.79-0.51,1.33-0.51c0.46,0,0.87,0.17,1.23,0.51c0.36,0.34,0.54,0.76,0.54,1.26v15.63
			l-0.64-0.49H276.36z"/>
		<path class="st1" d="M292.66,59.72c0.5,0,0.92,0.16,1.26,0.48c0.34,0.32,0.51,0.73,0.51,1.23c0,0.48-0.17,0.88-0.51,1.2
			c-0.34,0.32-0.76,0.48-1.26,0.48h-9.42c-0.5,0-0.92-0.17-1.26-0.51c-0.34-0.34-0.51-0.76-0.51-1.26V44.58
			c0-0.5,0.17-0.92,0.52-1.26c0.35-0.34,0.79-0.51,1.33-0.51c0.46,0,0.87,0.17,1.23,0.51c0.36,0.34,0.54,0.76,0.54,1.26v15.63
			l-0.64-0.49H292.66z"/>
	</g>
</g>
</svg>
